<svg xmlns="http://www.w3.org/2000/svg" width="500" height="500" viewBox="0 0 500 500">
  <defs>
    <pattern id="grainPattern" patternUnits="userSpaceOnUse" width="100" height="100">
      <!-- Base texture -->
      <rect width="100" height="100" fill="#F9F5EB" />
      
      <!-- Grain elements -->
      <g fill="#E8DCBF" opacity="0.7">
        <!-- Small grains -->
        <ellipse cx="10" cy="20" rx="3" ry="5" transform="rotate(30 10 20)" />
        <ellipse cx="30" cy="15" rx="3" ry="5" transform="rotate(45 30 15)" />
        <ellipse cx="50" cy="25" rx="3" ry="5" transform="rotate(60 50 25)" />
        <ellipse cx="70" cy="10" rx="3" ry="5" transform="rotate(20 70 10)" />
        <ellipse cx="90" cy="30" rx="3" ry="5" transform="rotate(70 90 30)" />
        
        <ellipse cx="15" cy="50" rx="3" ry="5" transform="rotate(10 15 50)" />
        <ellipse cx="35" cy="60" rx="3" ry="5" transform="rotate(50 35 60)" />
        <ellipse cx="55" cy="45" rx="3" ry="5" transform="rotate(30 55 45)" />
        <ellipse cx="75" cy="65" rx="3" ry="5" transform="rotate(40 75 65)" />
        <ellipse cx="95" cy="55" rx="3" ry="5" transform="rotate(25 95 55)" />
        
        <ellipse cx="20" cy="80" rx="3" ry="5" transform="rotate(55 20 80)" />
        <ellipse cx="40" cy="90" rx="3" ry="5" transform="rotate(35 40 90)" />
        <ellipse cx="60" cy="85" rx="3" ry="5" transform="rotate(65 60 85)" />
        <ellipse cx="80" cy="95" rx="3" ry="5" transform="rotate(15 80 95)" />
        <ellipse cx="5" cy="95" rx="3" ry="5" transform="rotate(75 5 95)" />
      </g>
      
      <!-- Medium grains -->
      <g fill="#D8C9A7" opacity="0.5">
        <ellipse cx="25" cy="35" rx="4" ry="7" transform="rotate(40 25 35)" />
        <ellipse cx="65" cy="40" rx="4" ry="7" transform="rotate(25 65 40)" />
        <ellipse cx="45" cy="75" rx="4" ry="7" transform="rotate(55 45 75)" />
        <ellipse cx="85" cy="80" rx="4" ry="7" transform="rotate(10 85 80)" />
      </g>
      
      <!-- Large grains -->
      <g fill="#C9B993" opacity="0.3">
        <ellipse cx="15" cy="70" rx="6" ry="9" transform="rotate(30 15 70)" />
        <ellipse cx="75" cy="30" rx="6" ry="9" transform="rotate(60 75 30)" />
      </g>
    </pattern>
  </defs>
  
  <!-- Apply the pattern to fill the entire SVG -->
  <rect width="500" height="500" fill="url(#grainPattern)" />
</svg>