<svg xmlns="http://www.w3.org/2000/svg" width="1200" height="600" viewBox="0 0 1200 600">
  <defs>
    <!-- Gradient for background -->
    <linearGradient id="bgGradient" x1="0%" y1="0%" x2="100%" y2="100%">
      <stop offset="0%" style="stop-color:#8A5E9B;stop-opacity:0.8" />
      <stop offset="100%" style="stop-color:#5EBCA0;stop-opacity:0.8" />
    </linearGradient>
    
    <!-- Gradient for wave patterns -->
    <linearGradient id="waveGradient1" x1="0%" y1="0%" x2="100%" y2="0%">
      <stop offset="0%" style="stop-color:#FFFFFF;stop-opacity:0.1" />
      <stop offset="100%" style="stop-color:#FFFFFF;stop-opacity:0.3" />
    </linearGradient>
    
    <linearGradient id="waveGradient2" x1="0%" y1="0%" x2="100%" y2="0%">
      <stop offset="0%" style="stop-color:#FFFFFF;stop-opacity:0.2" />
      <stop offset="100%" style="stop-color:#FFFFFF;stop-opacity:0.05" />
    </linearGradient>
    
    <!-- Pattern for subtle grain texture -->
    <pattern id="grainPattern" patternUnits="userSpaceOnUse" width="100" height="100" patternTransform="scale(0.5)">
      <rect width="100" height="100" fill="#FFFFFF" opacity="0.02" />
      <g fill="#FFFFFF" opacity="0.05">
        <circle cx="10" cy="10" r="1" />
        <circle cx="30" cy="15" r="1" />
        <circle cx="55" cy="20" r="1" />
        <circle cx="70" cy="35" r="1" />
        <circle cx="85" cy="50" r="1" />
        <circle cx="20" cy="60" r="1" />
        <circle cx="40" cy="75" r="1" />
        <circle cx="65" cy="85" r="1" />
        <circle cx="90" cy="95" r="1" />
      </g>
    </pattern>
  </defs>
  
  <!-- Background with gradient -->
  <rect width="1200" height="600" fill="url(#bgGradient)" />
  
  <!-- Grain texture overlay -->
  <rect width="1200" height="600" fill="url(#grainPattern)" />
  
  <!-- Decorative wave patterns -->
  <path d="M0,400 C200,450 400,350 600,400 C800,450 1000,350 1200,400 L1200,600 L0,600 Z" fill="url(#waveGradient1)" />
  <path d="M0,450 C300,500 600,400 900,450 C1000,470 1100,450 1200,470 L1200,600 L0,600 Z" fill="url(#waveGradient2)" />
  
  <!-- Subtle circles representing bubbles or grain -->
  <circle cx="200" cy="150" r="50" fill="#FFFFFF" opacity="0.05" />
  <circle cx="950" cy="100" r="70" fill="#FFFFFF" opacity="0.05" />
  <circle cx="600" cy="200" r="100" fill="#FFFFFF" opacity="0.03" />
  <circle cx="300" cy="300" r="30" fill="#FFFFFF" opacity="0.05" />
  <circle cx="800" cy="250" r="40" fill="#FFFFFF" opacity="0.05" />
  
  <!-- Small decorative elements -->
  <g opacity="0.2" fill="none" stroke="#FFFFFF" stroke-width="1">
    <path d="M100,100 L150,100" />
    <path d="M1050,150 L1100,150" />
    <path d="M200,200 L200,250" />
    <path d="M1000,300 L1000,350" />
  </g>
</svg>